<!-- icon666.com - MILLIONS vector ICONS FREE --><svg id="Capa_1" enable-background="new 0 0 511.999 511.999" viewBox="0 0 511.999 511.999" xmlns="http://www.w3.org/2000/svg"><g><g><path d="m299.999 305.779-44 61.22h-241c-5.23 0-10.09-2.73-12.81-7.19-2.72-4.47-2.92-10.03-.52-14.68l29.45-57.13-29.45-57.13c-2.4-4.65-2.2-10.21.52-14.68 2.72-4.46 7.58-7.19 12.81-7.19h241z" fill="#f7e4e9"/></g><g><path d="m510.329 345.129c2.4 4.65 2.2 10.21-.52 14.68-2.72 4.46-7.58 7.19-12.81 7.19h-241v-158h241c5.23 0 10.09 2.73 12.81 7.19 2.72 4.47 2.92 10.03.52 14.68l-29.45 57.13z" fill="#f8d3d9"/></g><g><path d="m323.619 294.81-67.62 112.19c-2.15 0-4.29-.46-6.29-1.38l-6.64-3.07c-32.91-15.19-62.97-35.51-89.33-60.39-26.36-24.89-48.38-53.73-65.43-85.71-10.02-18.78-15.31-39.95-15.31-61.22 0-58.58 47.65-106.23 106.23-106.23 30.05 0 57.82 13.07 76.77 35.21z" fill="#ca211f"/></g><g><path d="m438.999 195.229c0 21.27-5.29 42.44-15.3 61.22-17.06 31.98-39.08 60.82-65.44 85.71-26.36 24.88-56.42 45.2-89.33 60.39l-6.64 3.07c-2 .92-4.14 1.38-6.29 1.38v-282.79c18.95-22.14 46.72-35.21 76.77-35.21 58.58 0 106.23 47.65 106.23 106.23z" fill="#990d0a"/></g><g><path d="m371.78 399.999-27.78 71c-2.67 0-5.34-.71-7.72-2.14l-12.44-7.46c-20.13-12.08-37.16-29.11-49.24-49.24-6.28-10.47-9.6-22.46-9.6-34.66 0-26.75 21.75-48.5 48.5-48.5 11.16 0 21.88 3.81 30.5 10.79z" fill="#fa4747"/></g><g><path d="m422.999 377.499c0 12.2-3.32 24.19-9.6 34.65-12.08 20.14-29.11 37.17-49.25 49.25l-12.43 7.46c-2.38 1.43-5.05 2.14-7.72 2.14v-131.209c8.62-6.98 19.34-10.79 30.5-10.79 26.75-.001 48.5 21.749 48.5 48.499z" fill="#e83232"/></g><g><path d="m156.46 120.54-28.46 62.46c-2.67 0-5.34-.71-7.72-2.14l-12.44-7.46c-20.13-12.08-37.16-29.11-49.24-49.24-6.28-10.47-9.6-22.46-9.6-34.66 0-26.75 21.75-48.5 48.5-48.5 11.16 0 21.88 3.81 30.5 10.79z" fill="#fa4747"/></g><g><path d="m206.999 89.499c0 12.2-3.32 24.19-9.6 34.65-12.08 20.14-29.11 37.17-49.25 49.25l-12.43 7.46c-2.38 1.43-5.05 2.14-7.72 2.14v-131.209c8.62-6.98 19.34-10.79 30.5-10.79 26.75-.001 48.5 21.749 48.5 48.499z" fill="#e83232"/></g><g><path d="m223.885 179.24c-4.422-2.734-9.945-2.981-14.594-.656l-16 8c-7.41 3.704-10.413 12.715-6.708 20.124 2.786 5.571 8.565 8.642 14.417 8.263v73.029c0 8.284 6.716 15 15 15s15-6.716 15-15v-96c-.001-5.199-2.692-10.027-7.115-12.76z" fill="#f7e4e9"/></g><g><path d="m343.999 248.999h-1v-25c0-8.284-6.716-15-15-15s-15 6.716-15 15v25h-20.188l17.419-52.257c2.62-7.859-1.628-16.354-9.487-18.974-7.861-2.619-16.354 1.629-18.974 9.487l-24 72c-1.524 4.574-.757 9.603 2.062 13.514 2.819 3.912 7.347 6.229 12.168 6.229h41v9c0 8.284 6.716 15 15 15s15-6.716 15-15v-9h1c8.284 0 15-6.716 15-15 0-8.283-6.715-14.999-15-14.999z" fill="#f8d3d9"/></g></g></svg>